<?xml version="1.0" encoding="UTF-8"?>
<svg width="32px" height="22px" viewBox="0 0 32 22" version="1.1" xmlns="http://www.w3.org/2000/svg" xmlns:xlink="http://www.w3.org/1999/xlink">
    <!-- Generator: Sketch 50.2 (55047) - http://www.bohemiancoding.com/sketch -->
    <title>uk</title>
    <desc>Created with Sketch.</desc>
    <defs>
        <rect id="path-1" x="0" y="0" width="32" height="22" rx="2"></rect>
    </defs>
    <g id="Landing-page" stroke="none" stroke-width="1" fill="none" fill-rule="evenodd">
        <g id="Artboard" transform="translate(-117.000000, -304.000000)">
            <g id="Icon/Flag/UK/32" transform="translate(117.000000, 304.000000)">
                <g id="ic_flag_gb_32">
                    <mask id="mask-2" fill="white">
                        <use xlink:href="#path-1"></use>
                    </mask>
                    <use id="Base" fill="#00207F" xlink:href="#path-1"></use>
                    <path d="M16,9.63461407 L30.8965517,-0.606765245 L32.8825676,0.75862069 L17.9860159,11 L32.8825676,21.2413793 L30.8965517,22.6067652 L16,12.3653859 L1.10344828,22.6067652 L-0.882567629,21.2413793 L14.0139841,11 L-0.882567629,0.75862069 L1.10344828,-0.606765245 L16,9.63461407 Z" id="Combined-Shape" stroke="#FFFFFF" fill="#D10E24" mask="url(#mask-2)"></path>
                    <path d="M13.5,8.5 L13.5,-0.5 L18.5,-0.5 L18.5,8.5 L32.5,8.5 L32.5,13.5 L18.5,13.5 L18.5,22.5 L13.5,22.5 L13.5,13.5 L-0.5,13.5 L-0.5,8.5 L13.5,8.5 Z" id="Stripes" stroke="#FFFFFF" fill="#D10E24" mask="url(#mask-2)"></path>
                </g>
            </g>
        </g>
    </g>
</svg>